<?xml version="1.0" encoding="UTF-8"?>
<svg xmlns="http://www.w3.org/2000/svg" xmlns:xlink="http://www.w3.org/1999/xlink" width="48px" height="48px" viewBox="0 0 48 48" version="1.1">
<g id="surface1">
<path style=" stroke:none;fill-rule:nonzero;fill:rgb(84.313726%,46.27451%,33.333334%);fill-opacity:1;" d="M 6.664062 -0.0117188 C 6.789062 -0.0117188 6.914062 -0.015625 7.042969 -0.015625 C 7.183594 -0.015625 7.320312 -0.015625 7.460938 -0.015625 C 7.605469 -0.015625 7.753906 -0.015625 7.902344 -0.015625 C 8.308594 -0.015625 8.714844 -0.015625 9.121094 -0.015625 C 9.558594 -0.015625 9.996094 -0.0195312 10.433594 -0.0195312 C 11.488281 -0.0195312 12.546875 -0.0234375 13.601562 -0.0234375 C 14.101562 -0.0234375 14.597656 -0.0234375 15.09375 -0.0234375 C 16.75 -0.0273438 18.40625 -0.0273438 20.0625 -0.0273438 C 20.492188 -0.0273438 20.921875 -0.0273438 21.351562 -0.0273438 C 21.457031 -0.0273438 21.5625 -0.0273438 21.671875 -0.0273438 C 23.402344 -0.0273438 25.132812 -0.03125 26.859375 -0.0351562 C 28.636719 -0.0390625 30.410156 -0.0390625 32.1875 -0.0390625 C 33.183594 -0.0390625 34.179688 -0.0429688 35.175781 -0.0429688 C 36.023438 -0.046875 36.871094 -0.046875 37.722656 -0.046875 C 38.15625 -0.046875 38.585938 -0.046875 39.019531 -0.046875 C 39.417969 -0.046875 39.8125 -0.046875 40.210938 -0.046875 C 40.355469 -0.046875 40.496094 -0.046875 40.640625 -0.046875 C 41.875 -0.0585938 42.988281 0.167969 44.089844 0.742188 C 44.152344 0.777344 44.214844 0.808594 44.28125 0.84375 C 46.085938 1.800781 47.171875 3.386719 47.816406 5.273438 C 47.957031 5.746094 48.011719 6.167969 48.011719 6.664062 C 48.011719 6.789062 48.015625 6.914062 48.015625 7.042969 C 48.015625 7.183594 48.015625 7.320312 48.015625 7.460938 C 48.015625 7.605469 48.015625 7.753906 48.015625 7.902344 C 48.015625 8.308594 48.015625 8.714844 48.015625 9.121094 C 48.015625 9.558594 48.019531 9.996094 48.019531 10.433594 C 48.019531 11.488281 48.023438 12.546875 48.023438 13.601562 C 48.023438 14.101562 48.023438 14.597656 48.023438 15.09375 C 48.027344 16.75 48.027344 18.40625 48.027344 20.0625 C 48.027344 20.492188 48.027344 20.921875 48.027344 21.351562 C 48.027344 21.457031 48.027344 21.5625 48.027344 21.671875 C 48.027344 23.402344 48.03125 25.132812 48.035156 26.859375 C 48.039062 28.636719 48.039062 30.410156 48.039062 32.1875 C 48.039062 33.183594 48.042969 34.179688 48.042969 35.175781 C 48.046875 36.023438 48.046875 36.871094 48.046875 37.722656 C 48.046875 38.15625 48.046875 38.585938 48.046875 39.019531 C 48.046875 39.417969 48.046875 39.8125 48.046875 40.210938 C 48.046875 40.355469 48.046875 40.496094 48.046875 40.640625 C 48.058594 41.875 47.832031 42.988281 47.257812 44.089844 C 47.222656 44.152344 47.191406 44.214844 47.15625 44.28125 C 46.199219 46.085938 44.613281 47.171875 42.726562 47.816406 C 42.253906 47.957031 41.832031 48.011719 41.335938 48.011719 C 41.148438 48.011719 41.148438 48.011719 40.957031 48.015625 C 40.816406 48.015625 40.679688 48.015625 40.539062 48.015625 C 40.394531 48.015625 40.246094 48.015625 40.097656 48.015625 C 39.691406 48.015625 39.285156 48.015625 38.878906 48.015625 C 38.441406 48.015625 38.003906 48.019531 37.566406 48.019531 C 36.511719 48.019531 35.453125 48.023438 34.398438 48.023438 C 33.898438 48.023438 33.402344 48.023438 32.90625 48.023438 C 31.25 48.027344 29.59375 48.027344 27.9375 48.027344 C 27.507812 48.027344 27.078125 48.027344 26.648438 48.027344 C 26.542969 48.027344 26.4375 48.027344 26.328125 48.027344 C 24.597656 48.027344 22.867188 48.03125 21.140625 48.035156 C 19.363281 48.039062 17.589844 48.039062 15.8125 48.039062 C 14.816406 48.039062 13.820312 48.042969 12.824219 48.042969 C 11.976562 48.046875 11.128906 48.046875 10.277344 48.046875 C 9.84375 48.046875 9.414062 48.046875 8.980469 48.046875 C 8.582031 48.046875 8.1875 48.046875 7.789062 48.046875 C 7.644531 48.046875 7.503906 48.046875 7.359375 48.046875 C 6.125 48.058594 5.011719 47.832031 3.910156 47.257812 C 3.847656 47.222656 3.785156 47.191406 3.71875 47.15625 C 1.914062 46.199219 0.828125 44.613281 0.183594 42.726562 C 0.0429688 42.253906 -0.0117188 41.832031 -0.0117188 41.335938 C -0.0117188 41.210938 -0.015625 41.085938 -0.015625 40.957031 C -0.015625 40.816406 -0.015625 40.679688 -0.015625 40.539062 C -0.015625 40.394531 -0.015625 40.246094 -0.015625 40.097656 C -0.015625 39.691406 -0.015625 39.285156 -0.015625 38.878906 C -0.015625 38.441406 -0.0195312 38.003906 -0.0195312 37.566406 C -0.0195312 36.511719 -0.0234375 35.453125 -0.0234375 34.398438 C -0.0234375 33.898438 -0.0234375 33.402344 -0.0234375 32.90625 C -0.0273438 31.25 -0.0273438 29.59375 -0.0273438 27.9375 C -0.0273438 27.507812 -0.0273438 27.078125 -0.0273438 26.648438 C -0.0273438 26.542969 -0.0273438 26.4375 -0.0273438 26.328125 C -0.0273438 24.597656 -0.03125 22.867188 -0.0351562 21.140625 C -0.0390625 19.363281 -0.0390625 17.589844 -0.0390625 15.8125 C -0.0390625 14.816406 -0.0429688 13.820312 -0.0429688 12.824219 C -0.046875 11.976562 -0.046875 11.128906 -0.046875 10.277344 C -0.046875 9.84375 -0.046875 9.414062 -0.046875 8.980469 C -0.046875 8.582031 -0.046875 8.1875 -0.046875 7.789062 C -0.046875 7.644531 -0.046875 7.503906 -0.046875 7.359375 C -0.0585938 6.125 0.167969 5.011719 0.742188 3.910156 C 0.777344 3.847656 0.808594 3.785156 0.84375 3.71875 C 1.800781 1.914062 3.386719 0.828125 5.273438 0.183594 C 5.746094 0.0429688 6.167969 -0.0117188 6.664062 -0.0117188 Z M 6.664062 -0.0117188 "/>
<path style=" stroke:none;fill-rule:nonzero;fill:rgb(98.431373%,93.725491%,92.156863%);fill-opacity:1;" d="M 29.375 19.199219 C 29.875 19.632812 30.230469 20.105469 30.433594 20.734375 C 30.433594 20.832031 30.433594 20.925781 30.433594 21.023438 C 29.832031 21.023438 29.226562 21.023438 28.609375 21.023438 C 28.542969 20.867188 28.480469 20.707031 28.414062 20.542969 C 28.117188 20.324219 27.824219 20.316406 27.460938 20.308594 C 27.363281 20.304688 27.265625 20.300781 27.164062 20.296875 C 26.867188 20.335938 26.867188 20.335938 26.605469 20.527344 C 26.296875 20.984375 26.335938 21.394531 26.351562 21.9375 C 26.351562 22.035156 26.351562 22.132812 26.351562 22.238281 C 26.355469 22.929688 26.355469 22.929688 26.6875 23.519531 C 27.089844 23.71875 27.59375 23.660156 28.03125 23.617188 C 28.386719 23.414062 28.480469 23.328125 28.609375 22.945312 C 29.210938 22.945312 29.8125 22.945312 30.433594 22.945312 C 30.25 23.84375 29.894531 24.296875 29.183594 24.863281 C 29.121094 24.925781 29.058594 24.992188 28.992188 25.054688 C 29.039062 25.089844 29.089844 25.121094 29.140625 25.15625 C 29.761719 25.59375 30.3125 26.125 30.527344 26.878906 C 30.527344 26.976562 30.527344 27.070312 30.527344 27.167969 C 29.925781 27.167969 29.324219 27.167969 28.703125 27.167969 C 28.640625 27.007812 28.578125 26.851562 28.511719 26.6875 C 28.214844 26.46875 27.921875 26.460938 27.558594 26.453125 C 27.460938 26.449219 27.363281 26.445312 27.261719 26.441406 C 26.964844 26.480469 26.964844 26.480469 26.703125 26.667969 C 26.394531 27.128906 26.433594 27.539062 26.449219 28.078125 C 26.449219 28.179688 26.449219 28.277344 26.445312 28.378906 C 26.449219 29.074219 26.449219 29.074219 26.785156 29.664062 C 27.183594 29.863281 27.691406 29.804688 28.128906 29.761719 C 28.480469 29.558594 28.578125 29.472656 28.703125 29.089844 C 29.304688 29.089844 29.90625 29.089844 30.527344 29.089844 C 30.355469 29.953125 30.015625 30.503906 29.28125 31.007812 C 28.429688 31.53125 27.351562 31.527344 26.398438 31.332031 C 25.6875 31.085938 25.179688 30.605469 24.796875 29.96875 C 24.589844 29.449219 24.625 28.878906 24.628906 28.328125 C 24.628906 28.132812 24.628906 27.941406 24.625 27.746094 C 24.625 26.867188 24.695312 26.304688 25.304688 25.65625 C 25.386719 25.585938 25.472656 25.511719 25.558594 25.441406 C 25.644531 25.367188 25.730469 25.292969 25.820312 25.21875 C 25.882812 25.164062 25.949219 25.109375 26.015625 25.054688 C 25.933594 25.007812 25.855469 24.960938 25.769531 24.910156 C 25.222656 24.546875 24.785156 24.050781 24.574219 23.425781 C 24.539062 23.015625 24.539062 22.609375 24.539062 22.199219 C 24.539062 22.003906 24.535156 21.808594 24.53125 21.613281 C 24.53125 20.753906 24.597656 20.195312 25.160156 19.542969 C 26.335938 18.519531 28.019531 18.320312 29.375 19.199219 Z M 29.375 19.199219 "/>
<path style=" stroke:none;fill-rule:nonzero;fill:rgb(98.431373%,94.117647%,92.156863%);fill-opacity:1;" d="M 33.023438 22.945312 C 33.59375 22.945312 34.164062 22.945312 34.753906 22.945312 C 34.753906 23.609375 34.753906 24.273438 34.753906 24.960938 C 35.542969 24.960938 36.335938 24.960938 37.152344 24.960938 C 37.152344 25.46875 37.152344 25.972656 37.152344 26.496094 C 36.359375 26.496094 35.566406 26.496094 34.753906 26.496094 C 34.757812 26.886719 34.765625 27.273438 34.777344 27.664062 C 34.78125 27.796875 34.78125 27.929688 34.785156 28.0625 C 34.789062 28.253906 34.792969 28.441406 34.800781 28.632812 C 34.800781 28.75 34.804688 28.863281 34.804688 28.980469 C 34.851562 29.304688 34.894531 29.445312 35.136719 29.664062 C 35.347656 29.726562 35.347656 29.726562 35.585938 29.722656 C 35.667969 29.726562 35.753906 29.730469 35.84375 29.730469 C 35.933594 29.734375 36.023438 29.734375 36.113281 29.734375 C 36.203125 29.738281 36.292969 29.742188 36.386719 29.746094 C 36.609375 29.75 36.832031 29.757812 37.054688 29.761719 C 37.054688 30.265625 37.054688 30.773438 37.054688 31.296875 C 36.65625 31.304688 36.257812 31.3125 35.855469 31.320312 C 35.6875 31.324219 35.6875 31.324219 35.515625 31.328125 C 34.824219 31.335938 34.375 31.289062 33.792969 30.910156 C 33.320312 30.441406 33.050781 29.957031 32.992188 29.296875 C 32.992188 29.167969 32.992188 29.035156 32.996094 28.90625 C 32.996094 28.835938 32.996094 28.765625 32.996094 28.695312 C 33 28.476562 33.003906 28.257812 33.007812 28.039062 C 33.007812 27.886719 33.007812 27.738281 33.011719 27.589844 C 33.011719 27.226562 33.019531 26.859375 33.023438 26.496094 C 32.484375 26.496094 31.945312 26.496094 31.390625 26.496094 C 31.390625 25.988281 31.390625 25.480469 31.390625 24.960938 C 31.929688 24.960938 32.46875 24.960938 33.023438 24.960938 C 33.023438 24.292969 33.023438 23.628906 33.023438 22.945312 Z M 33.023438 22.945312 "/>
<path style=" stroke:none;fill-rule:nonzero;fill:rgb(98.431373%,93.725491%,92.156863%);fill-opacity:1;" d="M 22.464844 19.199219 C 22.964844 19.632812 23.316406 20.105469 23.519531 20.734375 C 23.519531 20.832031 23.519531 20.925781 23.519531 21.023438 C 22.917969 21.023438 22.316406 21.023438 21.695312 21.023438 C 21.632812 20.867188 21.570312 20.707031 21.503906 20.542969 C 21.207031 20.324219 20.914062 20.316406 20.550781 20.308594 C 20.453125 20.304688 20.355469 20.300781 20.253906 20.296875 C 19.957031 20.335938 19.957031 20.335938 19.695312 20.527344 C 19.386719 20.984375 19.425781 21.394531 19.441406 21.9375 C 19.441406 22.035156 19.441406 22.132812 19.4375 22.238281 C 19.441406 22.929688 19.441406 22.929688 19.777344 23.519531 C 20.175781 23.71875 20.683594 23.660156 21.121094 23.617188 C 21.472656 23.414062 21.570312 23.328125 21.695312 22.945312 C 22.296875 22.945312 22.898438 22.945312 23.519531 22.945312 C 23.347656 23.8125 23.003906 24.359375 22.273438 24.863281 C 21.421875 25.386719 20.34375 25.386719 19.386719 25.1875 C 18.679688 24.941406 18.171875 24.460938 17.789062 23.824219 C 17.582031 23.304688 17.617188 22.734375 17.621094 22.183594 C 17.621094 21.992188 17.621094 21.796875 17.617188 21.601562 C 17.617188 20.75 17.691406 20.191406 18.246094 19.542969 C 19.425781 18.519531 21.109375 18.320312 22.464844 19.199219 Z M 22.464844 19.199219 "/>
<path style=" stroke:none;fill-rule:nonzero;fill:rgb(98.431373%,93.725491%,92.156863%);fill-opacity:1;" d="M 15.550781 19.199219 C 16.050781 19.632812 16.40625 20.105469 16.609375 20.734375 C 16.609375 20.832031 16.609375 20.925781 16.609375 21.023438 C 16.007812 21.023438 15.402344 21.023438 14.785156 21.023438 C 14.71875 20.867188 14.65625 20.707031 14.59375 20.542969 C 14.292969 20.324219 14 20.316406 13.636719 20.308594 C 13.539062 20.304688 13.441406 20.300781 13.339844 20.296875 C 13.042969 20.335938 13.042969 20.335938 12.78125 20.527344 C 12.472656 20.984375 12.511719 21.394531 12.527344 21.9375 C 12.527344 22.035156 12.527344 22.132812 12.527344 22.238281 C 12.53125 22.929688 12.53125 22.929688 12.863281 23.519531 C 13.265625 23.71875 13.773438 23.660156 14.207031 23.617188 C 14.5625 23.414062 14.65625 23.328125 14.785156 22.945312 C 15.386719 22.945312 15.988281 22.945312 16.609375 22.945312 C 16.433594 23.8125 16.09375 24.359375 15.359375 24.863281 C 14.511719 25.386719 13.433594 25.386719 12.476562 25.1875 C 11.769531 24.941406 11.257812 24.460938 10.878906 23.824219 C 10.667969 23.304688 10.707031 22.734375 10.710938 22.183594 C 10.710938 21.992188 10.707031 21.796875 10.703125 21.601562 C 10.703125 20.75 10.777344 20.191406 11.335938 19.542969 C 12.511719 18.519531 14.195312 18.320312 15.550781 19.199219 Z M 15.550781 19.199219 "/>
<path style=" stroke:none;fill-rule:nonzero;fill:rgb(98.431373%,93.725491%,92.156863%);fill-opacity:1;" d="M 8.640625 19.199219 C 9.140625 19.632812 9.492188 20.105469 9.695312 20.734375 C 9.695312 20.832031 9.695312 20.925781 9.695312 21.023438 C 9.09375 21.023438 8.492188 21.023438 7.871094 21.023438 C 7.808594 20.867188 7.746094 20.707031 7.679688 20.542969 C 7.382812 20.324219 7.089844 20.316406 6.726562 20.308594 C 6.628906 20.304688 6.53125 20.300781 6.429688 20.296875 C 6.132812 20.335938 6.132812 20.335938 5.871094 20.527344 C 5.5625 20.984375 5.601562 21.394531 5.617188 21.9375 C 5.617188 22.035156 5.617188 22.132812 5.617188 22.238281 C 5.617188 22.929688 5.617188 22.929688 5.953125 23.519531 C 6.351562 23.71875 6.859375 23.660156 7.296875 23.617188 C 7.648438 23.414062 7.746094 23.328125 7.871094 22.945312 C 8.472656 22.945312 9.074219 22.945312 9.695312 22.945312 C 9.523438 23.8125 9.183594 24.359375 8.449219 24.863281 C 7.597656 25.386719 6.519531 25.386719 5.566406 25.1875 C 4.855469 24.941406 4.347656 24.460938 3.964844 23.824219 C 3.757812 23.304688 3.792969 22.734375 3.796875 22.183594 C 3.796875 21.992188 3.796875 21.796875 3.792969 21.601562 C 3.792969 20.75 3.867188 20.191406 4.421875 19.542969 C 5.601562 18.519531 7.285156 18.320312 8.640625 19.199219 Z M 8.640625 19.199219 "/>
<path style=" stroke:none;fill-rule:nonzero;fill:rgb(98.431373%,94.117647%,92.156863%);fill-opacity:1;" d="M 38.207031 22.847656 C 39.410156 22.847656 40.617188 22.847656 41.855469 22.847656 C 41.863281 23.550781 41.863281 23.550781 41.867188 24.265625 C 41.871094 24.5625 41.871094 24.859375 41.875 25.15625 C 41.882812 25.625 41.886719 26.09375 41.890625 26.566406 C 41.890625 26.945312 41.894531 27.324219 41.902344 27.703125 C 41.902344 27.847656 41.902344 27.992188 41.902344 28.136719 C 41.90625 28.339844 41.90625 28.542969 41.910156 28.742188 C 41.910156 28.917969 41.910156 28.917969 41.914062 29.09375 C 41.929688 29.375 41.929688 29.375 42.085938 29.558594 C 42.300781 29.707031 42.46875 29.707031 42.730469 29.714844 C 42.824219 29.714844 42.917969 29.71875 43.015625 29.722656 C 43.113281 29.726562 43.210938 29.726562 43.3125 29.730469 C 43.464844 29.734375 43.464844 29.734375 43.617188 29.738281 C 43.859375 29.746094 44.105469 29.753906 44.351562 29.761719 C 44.351562 30.265625 44.351562 30.773438 44.351562 31.296875 C 43.921875 31.304688 43.488281 31.3125 43.054688 31.320312 C 42.933594 31.324219 42.8125 31.328125 42.6875 31.328125 C 41.875 31.339844 41.339844 31.285156 40.703125 30.746094 C 40.660156 30.695312 40.617188 30.640625 40.570312 30.589844 C 40.527344 30.535156 40.484375 30.484375 40.4375 30.429688 C 40.054688 29.816406 40.101562 29.171875 40.109375 28.472656 C 40.109375 28.359375 40.109375 28.246094 40.109375 28.128906 C 40.109375 27.765625 40.113281 27.398438 40.117188 27.035156 C 40.117188 26.789062 40.117188 26.542969 40.117188 26.292969 C 40.121094 25.691406 40.125 25.085938 40.128906 24.480469 C 39.496094 24.480469 38.859375 24.480469 38.207031 24.480469 C 38.207031 23.941406 38.207031 23.402344 38.207031 22.847656 Z M 38.207031 22.847656 "/>
</g>
</svg>
